<svg xml:space="preserve" style="enable-background:new 0 0 1024 1024;" viewBox="0 0 1024 1024" y="0px" x="0px" xmlns:xlink="http://www.w3.org/1999/xlink" xmlns="http://www.w3.org/2000/svg" id="图层_1" version="1.1">
<style type="text/css">
	.st0{fill:#86FDA1;}
	.st1{fill:#0C1833;}
	.st2{fill:#152140;}
	.st3{fill:#FF9F8E;}
	.st4{fill:#F5575D;}
	.st5{opacity:0.4;fill:#FFFFFF;stroke:#0F0F0F;stroke-width:6;stroke-miterlimit:10;}
	.st6{fill:#FFFFFF;}
	.st7{fill:#976F58;}
	.st8{fill:#4A1706;}
	.st9{fill:#1E171F;}
	.st10{fill:url(#SVGID_1_);}
</style>
<g>
	<path d="M1024.5,512.5c0,156.09-69.84,295.88-179.92,389.7c-2.19,1.91-4.37,3.76-6.61,5.6
		c-7.51,6.22-15.19,12.16-23.04,17.88c-0.73,0.56-1.51,1.12-2.3,1.68c-0.22,0.22-0.5,0.39-0.73,0.56c-0.5,0.39-1.06,0.73-1.57,1.12
		c-20.12,14.4-41.31,27.41-63.5,38.84c-0.84,0.39-1.68,0.84-2.52,1.29c-0.9,0.45-1.74,0.9-2.63,1.29c-0.45,0.28-0.9,0.5-1.35,0.73
		c-12.39,6.17-25.11,11.83-38.06,16.98c-3.48,1.4-7.01,2.8-10.54,4.04c-48.48,18.16-100.44,29.14-154.64,31.72
		c-3.75,0.17-7.57,0.28-11.32,0.39c-4.43,0.11-8.86,0.17-13.28,0.17c-8.57,0-17.1-0.17-25.5-0.62c-9.19-0.45-18.27-1.12-27.29-2.07
		c-24.72-2.52-48.93-6.78-72.47-12.78c-0.95-0.17-1.85-0.45-2.8-0.73c-0.95-0.17-1.85-0.45-2.8-0.73c-1.18-0.22-2.3-0.56-3.48-0.9
		c-12.89-3.48-25.61-7.45-38.11-12c-3.59-1.23-7.12-2.52-10.59-3.92c-16.76-6.39-33.07-13.62-48.93-21.69
		c-16.42-8.41-32.39-17.65-47.75-27.69c-0.79-0.56-1.57-1.06-2.35-1.57c-0.79-0.56-1.57-1.07-2.41-1.57
		c-5.66-3.87-11.26-7.85-16.81-11.88c-6.84-4.99-13.51-10.09-20.06-15.47C74.82,817.18,0.5,673.58,0.5,512.5
		c0-282.76,229.24-512,512-512C795.26,0.5,1024.5,229.74,1024.5,512.5z" class="st0"></path>
</g>
<path d="M700.21,233.54c14.28-3.5,38.46-7.09,64.85,1.47c51.51,16.71,73.42,67.36,82.53,88.43
	c39.88,92.2-1.2,190.32-3.68,196.02c-2.96,6.79-12.64,28.09-24.32,58.95c-18.84,49.8-21.3,67.51-16.21,84.74
	c5.06,17.16,16.12,28.82,23.58,35.37c-22.23,12.63-49.63,11.48-70.01-2.95c-22.44-15.89-32.37-45.05-24.32-72.22
	c-9.66,24.52-5.79,51.6,10.32,70.01c15.68,17.91,36.98,20.78,42.74,21.37c-3.57,4.82-10.91,13.22-22.85,17.69
	c-21.52,8.06-45.07-1.49-58.95-15.48c-23.57-23.76-15.95-57.02-15.48-58.95c-1.32,2.66-12.79,26.8,0,52.32
	c13.43,26.8,41.69,31.33,44.21,31.69c-3.62,1.47-32.42,12.57-60.43-3.68c-21.46-12.46-28.54-32.91-30.21-38.32
	c-10.98-35.52,12.65-65.26,14.74-67.8c25.62-19.09,51.03-44.74,70.01-78.85C804.73,413.17,708.67,247.64,700.21,233.54z" class="st1"></path>
<path d="M696.85,564.41c15.97-13.71,57.29-52.88,72.22-117.91c23.2-101.03-37.08-178.34-44.21-187.18
	C651.28,168.2,535.04,176.71,503.78,179c-27.24,2-85.06,6.23-122.33,48.64c-0.05,0.06-0.1,0.12-0.15,0.17
	c-5.08,5.81-1.04,14.93,6.68,15.22l2.32,0.09c-7.89,0.73-20.55,2.91-33.9,10.32c-30.11,16.7-39.87,46.7-42.74,56.01
	c-7.37,23.9-10.92,66.32,11.05,82.53c18.05,13.33,48.64,5.49,48.64,5.16c0-0.34-31.95-5.62-42.74,8.84
	c-1.32,1.77-5.52,8.13-2.21,24.32c6.82,33.34,34.83,56.13,49.37,66.32c11.05-42.49,22.11-84.99,33.16-127.49
	c77.38-0.98,154.75-1.97,232.13-2.95C660.99,432.26,678.92,498.33,696.85,564.41z" class="st2"></path>
<ellipse ry="45.8" rx="54.78" cy="514.26" cx="726.33" class="st3" transform="matrix(0.2996 -0.9541 0.9541 0.2996 18.0573 1053.1251)"></ellipse>
<ellipse ry="41.03" rx="49.07" cy="523.99" cx="372.38" class="st3" transform="matrix(0.2996 -0.9541 0.9541 0.2996 -239.1086 722.2499)"></ellipse>
<path d="M700.1,541.94c0.21-11.66,3.4-23.87,11.28-32.76c1.91-2.15,3.87-4.25,6.33-6.02c2.38-1.75,5.66-2.93,8.74-2.19
	c6.19,1.65,9.11,7.59,10.45,12.82c-1.8-5.11-5.55-10.38-10.75-11.09c-5.23-0.54-8.9,4.39-12.01,8.66c-6.23,8.76-7.89,19.85-7,30.36
	c0.17,1.94-1.27,3.65-3.21,3.81s-3.65-1.27-3.81-3.21C700.1,542.21,700.1,542.05,700.1,541.94z" class="st2"></path>
<path d="M386.45,540.75c-4.45-10.78-11.87-20.98-22.45-26.39c-2.56-1.31-5.15-2.54-8.09-3.29
	c-2.86-0.77-6.34-0.66-8.93,1.14c-5.16,3.8-5.72,10.39-5.05,15.75c-0.19-5.42,1.38-11.69,5.97-14.24c4.67-2.41,9.88,0.84,14.34,3.69
	c9,5.88,14.59,15.6,17.59,25.72c0.55,1.87,2.52,2.93,4.38,2.38c1.87-0.55,2.93-2.52,2.38-4.38
	C386.55,541,386.5,540.85,386.45,540.75z" class="st2"></path>
<g>
	<path d="M631.1,916.38H383.14l23.2-85.47l8.18-30.27l8.46-31.16l8.46-31.11l7.45-27.58
		c23.71-7.4,52.96-11.77,84.58-11.77c34.75,0,66.64,5.27,91.53,14.01l1.96,24.72l2.63,33.46l2.69,33.97l2.02,25.39L631.1,916.38z" class="st3"></path>
</g>
<g>
	<path d="M616.97,737.76c-55.04,19.5-125.88,22.31-185.52,0.62l13.34-49.27H613.1L616.97,737.76z" class="st4"></path>
</g>
<path d="M646.49,333.75c20.77,28.16,58.51,88.31,60.92,169.98c1.38,46.7-9.39,80.24-11.79,87.45
	c-5.5,16.53-34.13,102.55-118.89,136.57c-17.53,7.04-61.21,24.57-109.06,7.86c-76.19-26.6-95.8-116.52-97.27-123.8
	c-8.81-43.58,0.75-89.9,4.91-110.05c5.47-26.48,13.92-51,11.79-88.43c-1.04-18.3-4.24-33.24-6.88-43.23
	C468.98,357.99,557.74,345.87,646.49,333.75z" class="st3"></path>
<path d="M731.89,309.49c-7.02,4.88-15.25,9.95-24.69,14.74c-6.31,3.2-12.37,5.87-18.05,8.11
	c-3.96,5.11-11.18,13.13-22.48,19.53c-22.9,12.96-45.39,9.54-51.21,8.47c-14.84-2.72-25.7-9.31-32.06-14
	c-5.43,3.72-15.38,9.48-29.11,11.79c-17.94,3.02-32.28-1.56-38.69-4.05c-5.81,4.44-21.17,14.92-43.11,15.84
	c-15.47,0.65-27.74-3.72-34.26-6.63c-7.65-3.41-13.42-7.5-17.32-10.69c1.61,3.13,5.5,11.81,2.58,21
	c-4.1,12.9-20.07,21.97-38.69,19.53c-2.59,1.99-10.21,7.31-21.37,7.74c-10.53,0.4-18.17-3.78-21-5.53
	c0.98-36.72,1.97-73.45,2.95-110.17c23.37-19.06,55.7-39.53,97.27-51.22C587.56,193.21,715.08,295.56,731.89,309.49z" class="st2"></path>
<g>
	<path d="M639.62,414.54c-0.44,0.84-2.89,0.4-11.33-1.55v-0.04c-6.62-1.55-16.88-4.04-32.74-7.64
		c-23.76-5.38-38.07-8.26-46.2-10.13c-6.8-1.6-9.37-2.49-9.6-3.6c-0.44-2,6.89-4.04,17.64-4.62c7.33-0.36,16.3-0.04,25.45,1.47
		c13.1,2.18,25.54,6.62,35.4,11.24C631.8,406.02,640.55,412.77,639.62,414.54z" class="st2"></path>
</g>
<g>
	<path d="M473.97,389.1c-0.32-3.42-21.6-0.19-41.92,10.4c-27.95,14.56-48.34,40.02-45.86,42.45
		c1.19,1.17,7.24-3.42,39.03-22.45C463.49,396.58,474.2,391.56,473.97,389.1z" class="st2"></path>
</g>
<ellipse ry="56.92" rx="77" cy="486" cx="459.69" class="st5" transform="matrix(0.5 -0.866 0.866 0.5 -191.0379 641.1028)"></ellipse>
<g>
	<circle r="12.33" cy="461.15" cx="466.61" class="st2"></circle>
	<circle r="3.36" cy="456.29" cx="472.28" class="st6"></circle>
</g>
<ellipse ry="51.2" rx="63.06" cy="489.17" cx="585.63" class="st5" transform="matrix(0.4704 -0.8825 0.8825 0.4704 -121.517 775.8631)"></ellipse>
<g>
	<circle r="12.74" cy="469.12" cx="579.34" class="st2"></circle>
	<circle r="3.47" cy="464.1" cx="585.2" class="st6"></circle>
</g>
<path d="M522.08,694.83c2.09,1.05,7.31,3.34,14.13,2.59c5.4-0.6,9.29-2.82,11.22-4.11c-0.19,1.19-0.67,3.19-2.03,5.15
	c-3.88,5.58-13.2,8.47-18.87,4.33C523.42,700.52,522.42,696.88,522.08,694.83z" class="st2"></path>
<path d="M844.59,902.2c-2.19,1.91-4.37,3.76-6.61,5.6c-7.51,6.22-15.19,12.16-23.04,17.88
	c-0.73,0.56-1.51,1.12-2.3,1.68c-0.22,0.22-0.5,0.39-0.73,0.56c-0.5,0.39-1.06,0.73-1.57,1.12c-20.12,14.4-41.31,27.41-63.5,38.84
	c-0.84,0.39-1.68,0.84-2.52,1.29c-0.9,0.45-1.74,0.9-2.63,1.29c-0.45,0.28-0.9,0.5-1.35,0.73c-12.39,6.17-25.11,11.83-38.06,16.98
	c-3.48,1.4-7.01,2.8-10.54,4.04c-48.48,18.16-100.44,29.14-154.64,31.72c-3.75,0.17-7.57,0.28-11.32,0.39
	c-4.43,0.11-8.86,0.17-13.28,0.17c-8.57,0-17.1-0.17-25.5-0.62c-9.19-0.45-18.27-1.12-27.29-2.07
	c-24.72-2.52-48.93-6.78-72.47-12.78c-0.95-0.17-1.85-0.45-2.8-0.73c-0.95-0.17-1.85-0.45-2.8-0.73c-1.18-0.22-2.3-0.56-3.48-0.9
	c-12.89-3.48-25.61-7.45-38.11-12c-3.59-1.23-7.12-2.52-10.59-3.92c-16.76-6.39-33.07-13.62-48.93-21.69
	c-16.42-8.41-32.39-17.65-47.75-27.69c-0.79-0.56-1.57-1.06-2.35-1.57c-0.79-0.56-1.57-1.07-2.41-1.57
	c-5.66-3.87-11.26-7.85-16.81-11.88c-6.84-4.99-13.51-10.09-20.06-15.47c12.39-3.42,26.68-7.06,43.27-11.38
	c27.13-6.95,37.05-8.24,51.62-11.83c30.38-7.4,71.91-22.59,120.34-56.78c1.85-1.29,3.64-2.58,5.49-3.98h0.05
	c3.59-2.63,7.12-5.27,10.76-8.07c1.96-0.06,3.98-0.11,5.94-0.17c56.83-1.74,113.61-3.47,170.5-5.21c1.46,1.06,2.92,2.13,4.32,3.08
	c6.44,4.65,12.84,8.91,19,12.78c0.67,0.45,1.29,0.84,1.9,1.23c33.91,21.13,63.62,32.4,85.53,38.84
	c40.3,11.88,61.43,9.75,119.44,27.97C834.72,899.12,839.82,900.69,844.59,902.2z" class="st3"></path>
<g>
	<path d="M507.82,931.34c-7.86,0-12.93-4.44-17.84-8.74c-2.55-2.23-5.17-4.53-8.41-6.5
		c-11.99-7.28-25.33-5.55-37.08-4.02c-1.7,0.22-3.34,0.43-4.94,0.61c-26.21,3-56.37-0.68-89.68-10.9c-2.96-0.91-4.63-4.04-3.72-7
		c0.91-2.96,4.04-4.63,7-3.72c31.83,9.76,60.47,13.3,85.13,10.49c1.54-0.18,3.13-0.38,4.77-0.6c12.92-1.69,28.99-3.77,44.33,5.56
		c4.07,2.47,7.21,5.22,9.98,7.64c4.54,3.98,7.15,6.18,10.69,5.96c4.12-0.1,7.1-2.92,11.63-7.52c1.7-1.72,3.43-3.47,5.3-5.08
		c16.51-14.18,37.71-13.02,56.43-11.96c2.67,0.15,5.3,0.3,7.88,0.39c28.7,1.07,60.48-3.68,94.36-14.17c2.96-0.9,6.1,0.74,7.01,3.69
		c0.91,2.96-0.74,6.1-3.69,7.01c-35.11,10.86-68.17,15.81-98.11,14.66c-2.64-0.1-5.34-0.25-8.07-0.4
		c-17.41-0.97-35.42-1.96-48.51,9.28c-1.64,1.41-3.14,2.94-4.62,4.44c-4.92,4.99-10.49,10.65-19.35,10.86
		C508.15,931.33,507.99,931.34,507.82,931.34z" class="st7"></path>
</g>
<g>
	<path d="M442.38,791.23l-13.79,27.46l-40.69,80.82l-0.39,0.84l-4.82,9.53l-42.65,84.8c-3.59-1.23-7.12-2.52-10.59-3.92
		l41.87-83.17l5.21-10.37l25.73-51.12l9.58-19.17h0.05l20.46-40.75L442.38,791.23z" class="st8"></path>
</g>
<g>
	<path d="M702.28,988.18c-3.48,1.4-7.01,2.8-10.54,4.04l-45.06-89.68l-5.27-10.43l-14.52-28.86l-23.48-46.69
		l-6.39-12.72l10.03-4.99l15.36,30.49l2.13,4.32l28.31,56.22l5.21,10.37L702.28,988.18z" class="st8"></path>
</g>
<path d="M619.61,771.22c-25.45,9.86-59.19,15.8-96.12,15.8c-39.12,0-74.6-6.67-100.5-17.54l-8.46,31.16
	c14.69,7.29,33.07,13.11,54.31,16.81h0.28c16.76,2.91,35.14,4.54,54.37,4.54c26.51,0,51.4-3.08,72.7-8.41c0.05,0,0.05,0,0.11,0
	c0.06,0,0.06,0,0.11-0.06c9.36-2.3,18.1-5.16,25.89-8.35L619.61,771.22z" class="st9"></path>
<path d="M640.89,812.52c-2.26-0.52-4.47-0.73-6.56-0.69c2.35-1.31,4.67-3.03,6.81-5.17
	c8.18-8.18,10.57-19.05,5.34-24.29c-5.23-5.23-16.11-2.84-24.29,5.34c-1.74,1.74-3.16,3.61-4.35,5.51
	c-1.61-0.61-3.29-1.17-5.09-1.58c-11.27-2.6-21.52,0.08-22.89,6c-1.19,5.15,4.75,11.05,13.75,14.21c-2.4,3.4-4.52,7.59-6.02,12.36
	c-4.29,13.67-2.05,26.54,5.01,28.76c7.06,2.22,16.26-7.06,20.56-20.73c0.47-1.5,0.83-2.99,1.15-4.46c2.66,2.75,6.75,5.04,11.63,6.17
	c9.51,2.19,18.32-0.82,19.69-6.74C657,821.29,650.4,814.71,640.89,812.52z" class="st9"></path>
<g>
	<path d="M466.6,683.81c-0.95,0-1.87-0.48-2.4-1.35c-0.8-1.32-0.38-3.05,0.95-3.85c15.1-9.14,31.44-15.71,48.57-19.56
		c22.44-5.02,45.35-5.24,68.12-0.63c1.52,0.31,2.5,1.78,2.19,3.31c-0.31,1.51-1.79,2.51-3.31,2.19
		c-21.99-4.46-44.12-4.24-65.77,0.61c-16.54,3.71-32.31,10.05-46.89,18.88C467.59,683.68,467.09,683.81,466.6,683.81z"></path>
</g>
<linearGradient gradientTransform="matrix(1 0 0 1 0 -453.766)" y2="1003.9389" x2="470.6051" y1="1054.2876" x1="557.8116" gradientUnits="userSpaceOnUse" id="SVGID_1_">
	<stop style="stop-color:#DD5543;stop-opacity:0" offset="0.2403"></stop>
	<stop style="stop-color:#DD5543;stop-opacity:0.6" offset="1"></stop>
</linearGradient>
<path d="M519.74,620.76l-10.7-2.07c-26.84-5.18-44.39-31.14-39.21-57.97l1.74-9.02c3.05-15.77,18.3-26.09,34.07-23.04
	l11.2,2.16c29.19,5.64,48.28,33.88,42.63,63.07l0,0C555.92,612.28,538.13,624.31,519.74,620.76z" class="st10"></path>
</svg>
