<?xml version="1.0" standalone="no"?><!DOCTYPE svg PUBLIC "-//W3C//DTD SVG 1.1//EN" "http://www.w3.org/Graphics/SVG/1.1/DTD/svg11.dtd"><svg t="1678862196297" class="icon" viewBox="0 0 1024 1024" version="1.1" xmlns="http://www.w3.org/2000/svg" p-id="2526" xmlns:xlink="http://www.w3.org/1999/xlink" width="16" height="16"><path d="M843.294118 843.294118a60.235294 60.235294 0 0 1-60.235294 60.235294H180.705882a60.235294 60.235294 0 0 1-60.235294-60.235294V240.941176a60.235294 60.235294 0 0 1 60.235294-60.235294h180.705883l200.764235-120.470588H120.470588a120.470588 120.470588 0 0 0-120.470588 120.470588v722.82353a120.470588 120.470588 0 0 0 120.470588 120.470588h722.82353a120.470588 120.470588 0 0 0 120.470588-120.470588V406.588235l-120.470588 90.352941V843.294118zM661.624471 178.296471c-0.602353 6.083765-0.903529 5.059765-1.024-0.361412-29.696-0.240941-404.299294 29.515294-419.900236 490.134588 4.457412 23.070118 80.775529-304.128 421.76753-371.772235C662.588235 301.176471 662.588235 421.647059 662.588235 421.647059l301.176471-180.705883-301.176471-180.705882c0.963765-0.602353-2.288941 95.774118-1.987764 117.699765 2.228706 0.060235 3.011765 0.180706 1.024 0.361412z m-419.900236 467.06447a242.326588 242.326588 0 0 0-0.963764 16.564706c0.060235-5.842824 0.843294-10.842353 0.963764-16.564706z" fill="#cdcdcd" p-id="2527"></path></svg>