<?xml version="1.0" standalone="no"?><!DOCTYPE svg PUBLIC "-//W3C//DTD SVG 1.1//EN" "http://www.w3.org/Graphics/SVG/1.1/DTD/svg11.dtd"><svg height="800" legacy-metrics="false" node-id="1" sillyvg="true" template-height="800" template-width="800" version="1.1" viewBox="0 0 800 800" width="800" xmlns="http://www.w3.org/2000/svg" xmlns:xlink="http://www.w3.org/1999/xlink"><defs node-id="52"><linearGradient gradientUnits="userSpaceOnUse" id="SVGID_1_" node-id="19" x1="388.2154" x2="388.2154" y1="86.5208" y2="705.5123"><stop offset="0.0000001918004" stop-color="#f6f8ff"></stop><stop offset="1" stop-color="#d9e3ff"></stop></linearGradient><linearGradient gradientUnits="userSpaceOnUse" id="SVGID_2_" node-id="27" x1="166.9199" x2="435.4493" y1="397.5036" y2="397.5036"><stop offset="0" stop-color="#d4e1ff"></stop><stop offset="1" stop-color="#7798ff"></stop></linearGradient><linearGradient gradientUnits="userSpaceOnUse" id="SVGID_3_" node-id="31" x1="412.1215" x2="653.9053" y1="439.2576" y2="439.2576"><stop offset="0" stop-color="#d4e1ff"></stop><stop offset="1" stop-color="#7798ff"></stop></linearGradient><linearGradient gradientUnits="userSpaceOnUse" id="SVGID_4_" node-id="35" x1="301.1845" x2="301.1845" y1="357.6589" y2="577.6464"><stop offset="0.0000001918004" stop-color="#f6f8ff"></stop><stop offset="1" stop-color="#89a6ff"></stop></linearGradient><linearGradient gradientUnits="userSpaceOnUse" id="SVGID_5_" node-id="39" x1="501.3252" x2="501.3252" y1="435.9915" y2="638.345"><stop offset="0.0000001918004" stop-color="#f6f8ff"></stop><stop offset="1" stop-color="#89a6ff"></stop></linearGradient><linearGradient gradientUnits="userSpaceOnUse" id="SVGID_6_" node-id="43" x1="503.7048" x2="587.3395" y1="351.4527" y2="351.4527"><stop offset="0.0000001918004" stop-color="#f6f8ff"></stop><stop offset="1" stop-color="#d9e3ff"></stop></linearGradient></defs><g node-id="132"><path d="M 686.04 166.49 C 686.04 177.41 677.18 186.27 666.26 186.27 C 655.34 186.27 646.48 177.41 646.48 166.49 C 646.48 155.57 655.34 146.71 666.26 146.71 C 677.18 146.71 686.04 155.57 686.04 166.49 Z" fill="#f3f6ff" fill-rule="nonzero" group-id="1" node-id="94" stroke="none" target-height="39.559998" target-width="39.559998" target-x="646.48" target-y="146.71"></path><path d="M 117.93 618.29 C 117.93 629.21 109.07 638.07 98.15 638.07 C 87.23 638.07 78.37 629.21 78.37 618.29 C 78.37 607.37 87.23 598.51 98.15 598.51 C 109.07 598.51 117.93 607.37 117.93 618.29 Z" fill="#dfe7ff" fill-rule="nonzero" group-id="1" node-id="96" stroke="none" target-height="39.559998" target-width="39.559998" target-x="78.37" target-y="598.51"></path><path d="M 219.27 680.29 C 211.89 680.29 205.89 674.29 205.89 666.91 C 205.89 659.53 211.89 653.53 219.27 653.53 C 226.65 653.53 232.65 659.53 232.65 666.91 C 232.65 674.29 226.65 680.29 219.27 680.29 Z M 219.27 659.96 C 215.44 659.96 212.32 663.08 212.32 666.91 C 212.32 670.74 215.44 673.86 219.27 673.86 C 223.10 673.86 226.22 670.74 226.22 666.91 C 226.23 663.08 223.11 659.96 219.27 659.96 Z" fill="#dfe7ff" fill-rule="nonzero" group-id="1" node-id="98" stroke="none" target-height="26.759949" target-width="26.759995" target-x="205.89" target-y="653.53"></path><path d="M 597.70 107.15 L 577.72 107.15 L 577.72 87.17 C 577.72 83.51 574.76 80.55 571.10 80.55 C 567.44 80.55 564.48 83.51 564.48 87.17 L 564.48 107.15 L 544.50 107.15 C 540.84 107.15 537.88 110.11 537.88 113.77 C 537.88 117.43 540.84 120.39 544.50 120.39 L 564.48 120.39 L 564.48 140.37 C 564.48 144.03 567.44 146.99 571.10 146.99 C 574.76 146.99 577.72 144.03 577.72 140.37 L 577.72 120.39 L 597.70 120.39 C 601.36 120.39 604.32 117.43 604.32 113.77 C 604.32 110.11 601.36 107.15 597.70 107.15 Z" fill="#f3f6ff" fill-rule="nonzero" group-id="1" node-id="100" stroke="none" target-height="66.44" target-width="66.44" target-x="537.88" target-y="80.55"></path><path d="M 655.28 684.18 L 640.44 684.18 L 640.44 669.34 C 640.44 666.30 637.97 663.83 634.93 663.83 C 631.89 663.83 629.42 666.30 629.42 669.34 L 629.42 684.18 L 614.58 684.18 C 611.54 684.18 609.07 686.65 609.07 689.69 C 609.07 692.73 611.54 695.20 614.58 695.20 L 629.42 695.20 L 629.42 710.04 C 629.42 713.08 631.89 715.55 634.93 715.55 C 637.97 715.55 640.44 713.08 640.44 710.04 L 640.44 695.20 L 655.28 695.20 C 658.32 695.20 660.79 692.73 660.79 689.69 C 660.79 686.65 658.32 684.18 655.28 684.18 Z" fill="#dfe7ff" fill-rule="nonzero" group-id="1" node-id="102" stroke="none" target-height="51.71997" target-width="51.71997" target-x="609.07" target-y="663.83"></path><path d="M 120.21 122.60 C 128.91 131.30 143.03 131.30 151.73 122.60 L 151.73 122.60 C 160.43 113.90 160.43 99.78 151.73 91.08 L 145.07 84.42 C 136.37 75.72 122.25 75.72 113.55 84.42 L 113.55 84.42 C 104.85 93.12 104.85 107.24 113.55 115.94 L 120.21 122.60 Z" fill="#f3f6ff" fill-rule="nonzero" group-id="1" node-id="104" stroke="none" target-height="51.230003" target-width="51.22998" target-x="107.024994" target-y="77.895"></path><path d="M 234.93 114.54 C 238.90 118.51 245.34 118.51 249.31 114.54 C 253.28 110.57 253.28 104.13 249.31 100.16 L 239.30 90.15 C 235.33 86.18 228.89 86.18 224.92 90.15 C 220.95 94.12 220.95 100.56 224.92 104.53 L 234.93 114.54 Z" fill="#f3f6ff" fill-rule="nonzero" group-id="1" node-id="106" stroke="none" target-height="30.272148" target-width="30.272186" target-x="221.97888" target-y="87.20893"></path><path d="M 83.86 315.26 C 87.83 319.23 94.27 319.23 98.24 315.26 L 98.24 315.26 C 102.21 311.29 102.21 304.85 98.24 300.88 L 88.23 290.87 C 84.26 286.90 77.82 286.90 73.85 290.87 C 69.88 294.84 69.88 301.28 73.85 305.25 L 83.86 315.26 Z" fill="#f3f6ff" fill-rule="nonzero" group-id="1" node-id="108" stroke="none" target-height="30.272217" target-width="30.272156" target-x="70.90892" target-y="287.92886"></path><path d="M 611.83 622.72 C 607.86 618.75 601.42 618.75 597.45 622.72 C 593.48 626.69 593.48 633.13 597.45 637.10 L 607.46 647.11 C 611.43 651.08 617.87 651.08 621.84 647.11 C 625.81 643.14 625.81 636.70 621.84 632.73 L 611.83 622.72 Z" fill="#dfe7ff" fill-rule="nonzero" group-id="1" node-id="110" stroke="none" target-height="30.272156" target-width="30.272156" target-x="594.50885" target-y="619.7789"></path><path d="M 732.21 631.22 C 732.21 649.32 717.54 663.99 699.44 663.99 C 681.34 663.99 666.67 649.32 666.67 631.22 C 666.67 613.12 681.34 598.45 699.44 598.45 C 717.54 598.45 732.21 613.12 732.21 631.22 Z" fill="#dfe7ff" fill-rule="nonzero" group-id="1" node-id="112" stroke="none" target-height="65.53998" target-width="65.54004" target-x="666.67" target-y="598.45"></path><path d="M 700.09 479.26 L 668.58 447.75 L 648.61 426.48 C 643.44 421.05 643.37 412.54 648.45 407.02 L 648.45 407.02 C 654.00 400.99 663.49 400.88 669.17 406.79 L 673.21 411.20 L 682.53 420.52 C 687.94 425.93 696.82 426.34 702.33 421.03 C 707.94 415.62 708.01 406.68 702.52 401.19 L 683.89 382.56 C 677.01 375.68 672.53 366.74 671.23 357.10 C 653.01 221.70 537.03 117.30 396.65 117.30 C 391.86 117.30 387.10 117.43 382.37 117.67 C 377.26 117.93 372.27 116.06 368.66 112.44 L 349.52 93.30 C 340.97 84.75 327.05 84.12 318.20 92.36 C 308.91 101.01 308.72 115.55 317.61 124.45 L 320.95 127.79 L 331.36 138.73 C 337.90 145.65 336.93 156.73 329.28 162.41 C 322.77 167.24 314.60 165.67 309.09 159.72 L 288.40 139.26 L 270.36 121.22 C 266.53 117.39 260.30 116.94 256.23 120.51 C 251.77 124.43 251.61 131.22 255.74 135.35 L 268.88 148.49 L 277.44 156.73 C 286.14 165.25 286.33 178.53 277.68 187.09 L 277.68 187.09 C 269.09 195.58 255.23 195.47 246.79 186.83 L 232.05 171.50 L 196.74 136.19 C 188.04 127.49 173.92 127.49 165.22 136.19 L 165.22 136.19 C 156.52 144.89 156.52 159.01 165.22 167.71 L 190.83 193.40 L 199.81 201.78 C 208.30 210.21 208.50 223.87 200.26 232.54 L 200.26 232.54 C 191.44 241.83 176.57 241.65 167.98 232.14 L 163.00 226.70 L 147.64 211.26 C 135.02 198.64 114.44 197.86 101.48 210.14 C 88.03 222.87 87.81 244.11 100.82 257.12 L 138.16 294.45 L 155.96 312.04 C 162.67 318.68 162.46 329.59 155.50 335.97 L 155.50 335.97 C 148.92 342.00 138.74 341.72 132.51 335.34 L 127.16 329.79 L 119.05 321.68 C 115.08 317.71 108.64 317.71 104.67 321.68 L 104.67 321.68 C 99.61 325.88 100.98 332.37 104.73 336.12 L 122.52 353.91 L 159.51 390.00 C 165.89 396.22 165.92 406.47 159.59 412.73 L 159.59 412.73 C 153.41 418.84 143.47 418.88 137.25 412.81 L 119.58 395.57 L 93.62 369.61 C 88.21 364.20 79.33 363.79 73.82 369.10 C 68.21 374.51 68.14 383.45 73.63 388.94 L 117.52 432.83 C 121.07 436.38 123.43 440.94 124.36 445.88 C 147.85 570.81 255.16 666.15 385.66 671.24 C 392.86 671.52 399.72 674.40 404.94 679.38 C 413.40 687.46 425.21 698.72 425.21 698.72 C 433.76 707.27 447.68 707.90 456.53 699.66 C 465.82 691.01 466.01 676.47 457.12 667.57 L 454.86 665.31 L 445.05 655.07 C 439.46 649.01 440.02 639.52 446.28 634.15 L 446.28 634.15 C 452.21 629.07 461.09 629.57 466.41 635.28 L 486.63 656.50 L 508.65 678.52 C 517.55 687.41 532.09 687.22 540.74 677.94 C 548.98 669.10 548.34 655.17 539.80 646.62 L 530.30 637.12 C 530.30 637.12 527.28 634.01 523.41 630.03 C 514.38 620.75 514.70 605.87 524.11 596.98 L 524.59 596.53 C 533.61 588.01 547.74 588.10 556.66 596.73 L 570.48 610.11 L 576.39 616.02 C 580.22 619.85 586.46 620.30 590.52 616.73 C 594.98 612.81 595.14 606.01 591.01 601.89 L 585.86 596.74 C 584.92 597.18 565.03 576.70 553.23 564.42 C 548.48 559.48 548.67 551.63 553.64 546.92 L 553.64 546.92 C 558.59 542.23 566.41 542.45 571.09 547.40 L 602.12 580.22 L 616.27 594.37 C 628.89 606.99 649.46 607.77 662.43 595.50 C 675.88 582.77 676.10 561.53 663.09 548.52 L 640.52 525.95 L 629.12 513.52 C 623.55 507.50 623.80 498.14 629.68 492.42 L 629.68 492.42 C 635.79 486.48 645.60 486.78 651.35 493.07 L 654.27 496.47 L 668.91 511.12 C 677.81 520.02 692.35 519.82 701.00 510.54 C 709.27 501.73 708.64 487.80 700.09 479.26 Z" fill="url(#SVGID_1_)" fill-rule="nonzero" group-id="1" node-id="114" stroke="none" target-height="618.9253" target-width="637.23474" target-x="69.602684" target-y="86.54737"></path><path d="M 427.89 200.14 L 413.05 200.14 L 413.05 185.30 C 413.05 182.26 410.58 179.79 407.54 179.79 C 404.50 179.79 402.03 182.26 402.03 185.30 L 402.03 200.14 L 387.19 200.14 C 384.15 200.14 381.68 202.61 381.68 205.65 C 381.68 208.69 384.15 211.16 387.19 211.16 L 402.03 211.16 L 402.03 226.00 C 402.03 229.04 404.50 231.51 407.54 231.51 C 410.58 231.51 413.05 229.04 413.05 226.00 L 413.05 211.16 L 427.89 211.16 C 430.93 211.16 433.40 208.69 433.40 205.65 C 433.40 202.60 430.93 200.14 427.89 200.14 Z" fill="#ffffff" fill-rule="nonzero" group-id="1" node-id="116" stroke="none" target-height="51.72" target-width="51.72" target-x="381.68" target-y="179.79"></path><path d="M 583.65 418.68 C 576.27 418.68 570.27 412.68 570.27 405.30 C 570.27 397.92 576.27 391.92 583.65 391.92 C 591.03 391.92 597.03 397.92 597.03 405.30 C 597.03 412.68 591.02 418.68 583.65 418.68 Z M 583.65 398.35 C 579.82 398.35 576.70 401.47 576.70 405.30 C 576.70 409.13 579.82 412.25 583.65 412.25 C 587.48 412.25 590.60 409.13 590.60 405.30 C 590.60 401.47 587.48 398.35 583.65 398.35 Z" fill="#ffffff" fill-rule="nonzero" group-id="1" node-id="118" stroke="none" target-height="26.75998" target-width="26.76001" target-x="570.27" target-y="391.92"></path><path d="M 221.00 520.72 C 213.62 520.72 207.62 514.72 207.62 507.34 C 207.62 499.96 213.62 493.96 221.00 493.96 C 228.38 493.96 234.38 499.96 234.38 507.34 C 234.38 514.72 228.37 520.72 221.00 520.72 Z M 221.00 500.38 C 217.17 500.38 214.05 503.50 214.05 507.33 C 214.05 511.16 217.17 514.28 221.00 514.28 C 224.83 514.28 227.95 511.16 227.95 507.33 C 227.95 503.50 224.83 500.38 221.00 500.38 Z" fill="#ffffff" fill-rule="nonzero" group-id="1" node-id="120" stroke="none" target-height="26.75998" target-width="26.76001" target-x="207.62" target-y="493.96"></path><path d="M 166.92 241.55 L 166.92 555.35 C 166.92 567.66 176.90 577.64 189.21 577.64 L 392.42 577.64 L 435.45 478.63 L 374.80 339.18 L 434.93 217.36 L 189.04 219.26 C 176.80 219.36 166.92 229.31 166.92 241.55 Z" fill="url(#SVGID_2_)" fill-rule="nonzero" group-id="1" node-id="122" stroke="none" target-height="360.28003" target-width="268.53003" target-x="166.92" target-y="217.36"></path><path d="M 524.61 240.17 L 637.15 269.07 C 648.72 272.04 655.89 283.60 653.41 295.28 L 584.53 620.66 C 581.66 634.20 567.28 641.88 554.43 636.74 L 412.11 579.73 L 471.21 497.82 L 435.96 357.85 L 524.61 240.17 Z" fill="url(#SVGID_3_)" fill-rule="nonzero" group-id="1" node-id="124" stroke="none" target-height="398.13007" target-width="241.75806" target-x="412.11" target-y="240.17"></path><path d="M 435.45 478.63 L 434.90 477.37 L 333.33 363.31 C 326.80 355.98 315.42 355.75 308.60 362.81 L 166.92 509.52 L 166.92 555.36 C 166.92 567.67 176.90 577.65 189.21 577.65 L 392.42 577.65 L 435.45 478.63 Z" fill="url(#SVGID_4_)" fill-rule="nonzero" group-id="1" node-id="126" stroke="none" target-height="219.95029" target-width="268.53003" target-x="166.92" target-y="357.69974"></path><path d="M 590.53 592.35 L 500.25 444.09 C 495.46 436.22 485.24 433.65 477.29 438.32 L 458.95 449.10 L 471.22 497.81 L 412.12 579.72 L 554.44 636.73 C 567.29 641.88 581.67 634.19 584.54 620.65 L 590.53 592.35 Z" fill="url(#SVGID_5_)" fill-rule="nonzero" group-id="1" node-id="128" stroke="none" target-height="202.30267" target-width="178.41003" target-x="412.12" target-y="435.99152"></path><path d="M 587.34 351.45 C 587.34 374.55 568.62 393.27 545.52 393.27 C 522.42 393.27 503.70 374.55 503.70 351.45 C 503.70 328.35 522.42 309.63 545.52 309.63 C 568.62 309.63 587.34 328.35 587.34 351.45 Z" fill="url(#SVGID_6_)" fill-rule="nonzero" group-id="1" node-id="130" stroke="none" target-height="83.639984" target-width="83.640015" target-x="503.7" target-y="309.63"></path></g></svg>