<?xml version="1.0" standalone="no"?><!DOCTYPE svg PUBLIC "-//W3C//DTD SVG 1.1//EN" "http://www.w3.org/Graphics/SVG/1.1/DTD/svg11.dtd"><svg t="1676269775305" class="icon" viewBox="0 0 1024 1024" version="1.1" xmlns="http://www.w3.org/2000/svg" p-id="2194" width="16" height="16" xmlns:xlink="http://www.w3.org/1999/xlink"><path d="M512 1019.733333C231.594667 1019.733333 4.266667 792.405333 4.266667 512S231.594667 4.266667 512 4.266667 1019.733333 231.594667 1019.733333 512 792.405333 1019.733333 512 1019.733333z m0-76.8c237.994667 0 430.933333-192.938667 430.933333-430.933333 0-237.994667-192.938667-430.933333-430.933333-430.933333C274.005333 81.066667 81.066667 274.005333 81.066667 512c0 237.994667 192.938667 430.933333 430.933333 430.933333z" fill="#51C41A" p-id="2195"></path><path d="M181.418667 580.138667a44.288 44.288 0 0 1 0-61.312 41.301333 41.301333 0 0 1 59.605333 0l85.248 89.472c16.426667 16.938667 16.426667 44.416 0 61.354666a41.301333 41.301333 0 0 1-59.605333 0l-85.248-89.514666z m556.245333-255.402667a41.301333 41.301333 0 0 1 59.392-5.333333c17.834667 15.402667 20.138667 42.794667 5.162667 61.141333L395.52 751.445333a41.301333 41.301333 0 0 1-59.349333 5.333334 44.245333 44.245333 0 0 1-5.205334-61.141334l406.741334-370.901333z" fill="#51C41A" p-id="2196"></path></svg>