<?xml version="1.0" standalone="no"?><!DOCTYPE svg PUBLIC "-//W3C//DTD SVG 1.1//EN" "http://www.w3.org/Graphics/SVG/1.1/DTD/svg11.dtd"><svg t="1681482904691" class="icon" viewBox="0 0 1024 1024" version="1.1" xmlns="http://www.w3.org/2000/svg" p-id="6314" xmlns:xlink="http://www.w3.org/1999/xlink" width="16" height="16"><path d="M0 51.2m38.4 0l947.2 0q38.4 0 38.4 38.4l0 0q0 38.4-38.4 38.4l-947.2 0q-38.4 0-38.4-38.4l0 0q0-38.4 38.4-38.4Z" fill="#ffffff" p-id="6315"></path><path d="M460.8 332.8m38.4 0l486.4 0q38.4 0 38.4 38.4l0 0q0 38.4-38.4 38.4l-486.4 0q-38.4 0-38.4-38.4l0 0q0-38.4 38.4-38.4Z" fill="#ffffff" p-id="6316"></path><path d="M460.8 614.4m38.4 0l486.4 0q38.4 0 38.4 38.4l0 0q0 38.4-38.4 38.4l-486.4 0q-38.4 0-38.4-38.4l0 0q0-38.4 38.4-38.4Z" fill="#ffffff" p-id="6317"></path><path d="M0 896m38.4 0l947.2 0q38.4 0 38.4 38.4l0 0q0 38.4-38.4 38.4l-947.2 0q-38.4 0-38.4-38.4l0 0q0-38.4 38.4-38.4Z" fill="#ffffff" p-id="6318"></path><path d="M20.1984 489.1136l275.5584-137.7792a25.6 25.6 0 0 1 37.0432 22.8864v275.5584a25.6 25.6 0 0 1-37.0432 22.8864L20.1984 534.8864a25.6 25.6 0 0 1 0-45.7728z" fill="#ffffff" p-id="6319"></path></svg>