<?xml version="1.0" standalone="no"?><!DOCTYPE svg PUBLIC "-//W3C//DTD SVG 1.1//EN" "http://www.w3.org/Graphics/SVG/1.1/DTD/svg11.dtd"><svg t="1676005360857" class="icon" viewBox="0 0 1024 1024" version="1.1" xmlns="http://www.w3.org/2000/svg" p-id="8599" xmlns:xlink="http://www.w3.org/1999/xlink" width="48" height="48"><path d="M890.201775 1024h-149.438129a17.421544 17.421544 0 0 1 0-34.843087h149.438129A93.68919 93.68919 0 0 0 980.406656 890.434833a96.786353 96.786353 0 0 0-61.168975-91.753462 17.808689 17.808689 0 0 1-11.227217-18.195835v-13.937235a121.950805 121.950805 0 0 0-116.143624-125.822258 118.07935 118.07935 0 0 0-109.562151 81.300536 17.421544 17.421544 0 0 1-22.067288 10.452926 12.388653 12.388653 0 0 1-5.420036-3.097163 51.103194 51.103194 0 0 0-33.681651-12.388653 56.52323 56.52323 0 0 0-54.200358 58.846102v5.420036a16.647253 16.647253 0 0 1-11.227217 17.421544A97.173498 97.173498 0 0 0 494.539165 890.434833a94.076335 94.076335 0 0 0 90.592026 97.173498h68.524738a17.421544 17.421544 0 0 1 0 34.843087h-68.524738A128.919422 128.919422 0 0 1 459.696077 890.434833a133.178021 133.178021 0 0 1 72.009047-116.143623 91.753462 91.753462 0 0 1 89.043445-89.043445 86.720572 86.720572 0 0 1 38.714541 8.517199 151.761001 151.761001 0 0 1 133.952312-84.784845 154.858165 154.858165 0 0 1 151.761001 160.665346V774.29121A133.178021 133.178021 0 0 1 1015.249743 890.434833a128.919422 128.919422 0 0 1-125.047968 133.565167zM95.392245 658.147586A86.720572 86.720572 0 0 1 8.671673 572.58845v-173.441144a86.720572 86.720572 0 0 1 86.720572-86.720572h728.99481a86.720572 86.720572 0 0 1 86.720572 86.720572v138.985203a17.421544 17.421544 0 0 1-34.843087 0v-138.985203A51.877485 51.877485 0 0 0 824.387055 348.431257H95.392245A51.877485 51.877485 0 0 0 43.51476 399.147306v173.441144a52.264631 52.264631 0 0 0 51.877485 52.264631 17.421544 17.421544 0 1 1 0 34.455942z" fill="#ffffff" p-id="8600"></path><path d="M390.397049 971.735369H259.154754a17.421544 17.421544 0 1 1 0-34.455941h131.242295a17.421544 17.421544 0 1 1 0 34.455941z m-200.541323 0a17.421544 17.421544 0 1 1 17.034398-17.421543 17.421544 17.421544 0 0 1-17.034398 17.421543z m-69.686174 0h-24.777307A86.720572 86.720572 0 0 1 8.671673 885.014797v-173.441144a86.720572 86.720572 0 0 1 86.720572-86.720572H511.960708a17.421544 17.421544 0 1 1 0 33.294505H95.392245A52.651776 52.651776 0 0 0 43.51476 711.573653v173.441144a52.651776 52.651776 0 0 0 51.877485 52.264631h24.777307a17.421544 17.421544 0 1 1 0 34.455941zM824.387055 348.431257a17.421544 17.421544 0 0 1-17.421544-17.421543 17.421544 17.421544 0 0 1 17.421544-17.421544 51.877485 51.877485 0 0 0 51.877485-52.26463V86.720959A51.877485 51.877485 0 0 0 824.387055 34.843474h-200.928469a17.421544 17.421544 0 0 1 0-34.843087h200.928469a86.720572 86.720572 0 0 1 86.720572 86.720572v173.441145A87.107718 87.107718 0 0 1 824.387055 348.431257zM95.392245 348.431257A87.107718 87.107718 0 0 1 8.671673 260.162104V86.720959A86.720572 86.720572 0 0 1 95.392245 0.000387H484.860529a17.421544 17.421544 0 0 1 17.034398 17.421544 17.421544 17.421544 0 0 1-17.034398 17.421543H95.392245A51.877485 51.877485 0 0 0 43.51476 86.720959v173.441145a51.877485 51.877485 0 0 0 51.877485 52.26463 17.421544 17.421544 0 0 1 0 34.843087zM554.159558 34.843474a17.421544 17.421544 0 1 1 17.421543-17.421543 17.421544 17.421544 0 0 1-17.421543 17.421543z" fill="#ffffff" p-id="8601"></path><path d="M789.543968 190.863075a18.58298 18.58298 0 0 1-12.388653-5.03289 17.808689 17.808689 0 0 1-5.032891-12.388654 18.58298 18.58298 0 0 1 5.032891-12.388653 18.195834 18.195834 0 0 1 24.777306 0 18.58298 18.58298 0 0 1 5.03289 12.388653 17.034398 17.034398 0 0 1-17.034398 17.421544zM720.244939 190.863075a17.034398 17.034398 0 0 1-17.421543-17.034398 18.58298 18.58298 0 0 1 5.03289-12.388653 18.970125 18.970125 0 0 1 24.777306 0 18.58298 18.58298 0 0 1 5.032891 12.388653 17.421544 17.421544 0 0 1-17.034398 17.421543zM650.945911 190.863075a17.034398 17.034398 0 0 1-17.421544-17.034398 17.421544 17.421544 0 1 1 34.455942 0 16.260107 16.260107 0 0 1-5.032891 12.388653 17.808689 17.808689 0 0 1-12.001507 4.645745z" fill="#ffffff" p-id="8602"></path></svg>