<?xml version="1.0" standalone="no"?><!DOCTYPE svg PUBLIC "-//W3C//DTD SVG 1.1//EN" "http://www.w3.org/Graphics/SVG/1.1/DTD/svg11.dtd"><svg t="1679382628768" class="icon" viewBox="0 0 1024 1024" version="1.1" xmlns="http://www.w3.org/2000/svg" p-id="2378" xmlns:xlink="http://www.w3.org/1999/xlink" width="16" height="16"><path d="M460 182.784c0 29.3376-23.7888 53.12-53.12 53.12L181.12 235.904c-29.3312 0-53.12-23.7824-53.12-53.12L128 181.12c0-29.3376 23.7888-53.12 53.12-53.12l225.76 0c29.3312 0 53.12 23.7824 53.12 53.12L460 182.784zM896 182.784c0 29.3376-23.7888 53.12-53.1136 53.12L617.1264 235.904c-29.3376 0-53.1264-23.7824-53.1264-53.12L564 181.12c0-29.3376 23.7888-53.12 53.1264-53.12l225.76 0c29.3248 0 53.1136 23.7824 53.1136 53.12L896 182.784zM460 842.88c0 29.3376-23.7888 53.12-53.1136 53.12L181.12 896c-29.3376 0-53.1264-23.7824-53.1264-53.12l0-1.664c0-29.3376 23.7888-53.12 53.1264-53.12l225.76 0c29.3248 0 53.1136 23.7824 53.1136 53.12L459.9936 842.88zM182.7776 564c29.3376 0 53.12 23.7888 53.12 53.1136l0 225.76c0 29.3376-23.7824 53.1264-53.12 53.1264l-1.664 0c-29.3376 0-53.12-23.7888-53.12-53.1264L127.9936 617.1136c0-29.3248 23.7824-53.1136 53.12-53.1136L182.7776 564zM182.784 128c29.3376 0 53.12 23.7888 53.12 53.1136l0 225.7664c0 29.3376-23.7824 53.1264-53.12 53.1264L181.12 460.0064c-29.3376 0-53.12-23.7888-53.12-53.1264L128 181.1136C128 151.7888 151.7824 128 181.12 128L182.784 128zM592.7936 591.3728c25.1264-25.1264 65.8752-25.1264 90.9888-0.0192l193.376 193.3696c25.1264 25.1328 25.1264 65.8816 0 91.008l-1.4336 1.4208c-25.1264 25.1328-65.8624 25.1328-91.0016 0L591.36 683.7824c-25.1136-25.1136-25.12-65.856 0.0064-90.9824L592.7936 591.3728zM842.8864 128c29.3376 0 53.1136 23.7888 53.1136 53.1136l0 225.7664c0 29.3376-23.776 53.1264-53.1136 53.1264l-1.664 0c-29.3376 0-53.1264-23.7888-53.1264-53.1264L788.096 181.1136c0-29.3248 23.7888-53.1136 53.1264-53.1136L842.8864 128zM877.1584 592.7872c25.1264 25.1264 25.1264 65.8816 0.0192 90.9952l-193.3696 193.376c-25.1328 25.1264-65.8816 25.1264-91.008 0l-1.4208-1.4336c-25.1328-25.1264-25.1328-65.8624 0-91.0016L784.7488 591.36c25.1136-25.1136 65.856-25.1264 90.9824 0L877.1584 592.7872z" fill="#ffffff" p-id="2379"></path></svg>